HIERARCHY
ROOT RootJoint
{
    OFFSET   0.000000   0.000000   0.000000
    CHANNELS 6 Xposition Yposition Zposition Xrotation Yrotation Zrotation
    JOINT pelvis_lowerback
    {
        OFFSET   0.000000   0.093605   0.000000
        CHANNELS 3 Xrotation Yrotation Zrotation
        JOINT lowerback_torso
        {
            OFFSET   0.000000   0.100000   0.000000
            CHANNELS 3 Xrotation Yrotation Zrotation
            JOINT torso_head
            {
                OFFSET   0.000000   0.282350   0.000000
                CHANNELS 3 Xrotation Yrotation Zrotation
                End Site
                {
                    OFFSET   0.000000   0.192650   0.000000
                }
            }
            JOINT rTorso_Clavicle
            {
                OFFSET  -0.001000   0.157500   0.000000
                CHANNELS 3 Xrotation Yrotation Zrotation
                JOINT rShoulder
                {
                    OFFSET  -0.117647   0.000000   0.000000
                    CHANNELS 3 Xrotation Yrotation Zrotation
                    JOINT rElbow
                    {
                        OFFSET  -0.245000   0.000000   0.000000
                        CHANNELS 3 Xrotation Yrotation Zrotation
                        JOINT rWrist
                        {
                            OFFSET  -0.240000   0.000000   0.000000
                            CHANNELS 3 Xrotation Yrotation Zrotation
                            End Site
                            {
                                OFFSET  -0.116353  -0.002500   0.000000
                            }
                        }
                    }
                }
            }
            JOINT lTorso_Clavicle
            {
                OFFSET   0.001000   0.157500   0.000000
                CHANNELS 3 Xrotation Yrotation Zrotation
                JOINT lShoulder
                {
                    OFFSET   0.117647   0.000000   0.000000
                    CHANNELS 3 Xrotation Yrotation Zrotation
                    JOINT lElbow
                    {
                        OFFSET   0.245000   0.000000   0.000000
                        CHANNELS 3 Xrotation Yrotation Zrotation
                        JOINT lWrist
                        {
                            OFFSET   0.240000   0.000000   0.000000
                            CHANNELS 3 Xrotation Yrotation Zrotation
                            End Site
                            {
                                OFFSET   0.116353  -0.002500   0.000000
                            }
                        }
                    }
                }
            }
        }
    }
    JOINT rHip
    {
        OFFSET  -0.100000  -0.051395   0.000000
        CHANNELS 3 Xrotation Yrotation Zrotation
        JOINT rKnee
        {
            OFFSET   0.000000  -0.410000   0.000000
            CHANNELS 3 Xrotation Yrotation Zrotation
            JOINT rAnkle
            {
                OFFSET   0.000000  -0.390000   0.000000
                CHANNELS 3 Xrotation Yrotation Zrotation
                JOINT rToeJoint
                {
                    OFFSET   0.000000  -0.050000   0.130000
                    CHANNELS 3 Xrotation Yrotation Zrotation
                    End Site
                    {
                        OFFSET  -0.010000   0.002000   0.060000
                    }
                }
            }
        }
    }
    JOINT lHip
    {
        OFFSET   0.100000  -0.051395   0.000000
        CHANNELS 3 Xrotation Yrotation Zrotation
        JOINT lKnee
        {
            OFFSET   0.000000  -0.410000   0.000000
            CHANNELS 3 Xrotation Yrotation Zrotation
            JOINT lAnkle
            {
                OFFSET   0.000000  -0.390000   0.000000
                CHANNELS 3 Xrotation Yrotation Zrotation
                JOINT lToeJoint
                {
                    OFFSET   0.000000  -0.050000   0.130000
                    CHANNELS 3 Xrotation Yrotation Zrotation
                    End Site
                    {
                        OFFSET   0.010000   0.002000   0.060000
                    }
                }
            }
        }
    }
}
MOTION
Frames: 14
Frame Time:   0.008333
 -2.379103   0.926104   4.130969   9.913857  20.011167  -0.953475  10.892692   1.569465  -2.454659   7.116073  -0.675434  -0.873908  -4.228142  -1.484659  -1.172469   5.754926  -0.579146   4.688688  13.936695   9.835782  54.632798  -0.000030  16.080816  -0.000587   4.695968   2.844280   4.614227   5.302236   3.841910  -3.482617  10.770370  -0.408305 -46.459993   0.000266 -22.191878  -0.000549   3.467161  -3.522761  -0.007183  -9.045358 -13.062522  -7.391025  26.315052   0.010430   0.025968  -4.536726 -18.511245   3.845977 -14.722491  -0.000236  -0.001636  -2.605799   1.393058   3.882481   0.876057  -0.000208   0.000339   2.460127   4.180343   1.861111 -15.730982   0.004653  -0.012089
 -2.379917   0.927706   4.133123  10.137401  20.334648  -1.134263  11.189413   1.555104  -2.446555   7.173838  -0.618778  -0.736745  -4.258040  -1.591584  -1.145541   5.813711  -0.603096   4.647196  13.913795   9.666871  54.528177  -0.000020  16.074251  -0.000445   4.622099   2.858211   4.725244   5.365628   3.814871  -3.500896  10.723829  -0.267039 -46.473814   0.000144 -22.140413  -0.000452   3.324781  -3.480992   0.006090  -9.829755 -12.874372  -7.419831  27.512276   0.010481   0.025005  -4.757326 -18.425390   3.842516 -13.668769   0.000659   0.003678  -3.018868   1.391447   4.073204   1.190982  -0.000417   0.001222   3.259064   3.965825   1.645202 -17.020381   0.003521  -0.010958
 -2.380773   0.929293   4.135260  10.317099  20.575138  -1.305229  11.511751   1.545350  -2.417868   7.252879  -0.557304  -0.597445  -4.278852  -1.692125  -1.112527   5.845902  -0.603587   4.589426  13.875511   9.516152  54.405292  -0.000014  16.071811  -0.000348   4.548444   2.873325   4.782258   5.413842   3.770529  -3.540143  10.670506  -0.148378 -46.501560   0.000055 -22.094592  -0.000402   3.189066  -3.431327  -0.007803 -10.633434 -12.680413  -7.477784  28.610571   0.010311   0.023011  -4.972444 -18.343793   3.837324 -12.747925   0.001262   0.006532  -3.386261   1.382614   4.290652   1.554484  -0.000682   0.001798   4.037653   3.754468   1.447648 -18.387468   0.002745  -0.009127
 -2.381670   0.930810   4.137466  10.460177  20.749721  -1.464989  11.835563   1.536430  -2.376934   7.343941  -0.497043  -0.460945  -4.291978  -1.786314  -1.077735   5.866776  -0.595123   4.524453  13.832580   9.379069  54.280173  -0.000011  16.072249  -0.000280   4.477252   2.898008   4.810343   5.454058   3.721736  -3.584792  10.616434  -0.043671 -46.534321  -0.000002 -22.054557  -0.000372   3.059777  -3.394230  -0.040032 -11.439566 -12.488206  -7.559844  29.613526   0.009947   0.020468  -5.174418 -18.267695   3.832680 -11.907305   0.001651   0.007886  -3.703542   1.363933   4.524906   1.919855  -0.000937   0.002026   4.787793   3.543433   1.267968 -19.760820   0.002157  -0.006802
 -2.382611   0.932229   4.139788  10.570774  20.875157  -1.612138  12.151013   1.524260  -2.329855   7.439909  -0.442518  -0.327588  -4.300597  -1.874579  -1.043214   5.883513  -0.584520   4.459434  13.790202   9.252193  54.159275  -0.000009  16.073537  -0.000227   4.408697   2.926657   4.825704   5.488845   3.672036  -3.628372  10.563555   0.051067 -46.566727  -0.000034 -22.018773  -0.000350   2.936345  -3.367185  -0.078988 -12.236499 -12.299294  -7.661076  30.530762   0.009447   0.017771  -5.363733 -18.196789   3.828547 -11.138070   0.001865   0.008297  -3.973315   1.341593   4.770269   2.285162  -0.001176   0.002045   5.500305   3.338662   1.103725 -21.119110   0.001726  -0.004426
 -2.383601   0.933541   4.142248  10.652645  20.964356  -1.746203  12.452667   1.506495  -2.279783   7.536211  -0.396442  -0.197269  -4.306643  -1.957299  -1.009916   5.899645  -0.575055   4.398229  13.750834   9.133575  54.045774  -0.000007  16.074586  -0.000184   4.342940   2.954345   4.837398   5.518988   3.622287  -3.668012  10.512174   0.137524 -46.596214  -0.000049 -21.986512  -0.000332   2.818374  -3.347162  -0.117639 -13.016828 -12.114297  -7.776873  31.371275   0.008862   0.015157  -5.541045 -18.130717   3.824850 -10.433816   0.001943   0.008139  -4.198807   1.318670   5.023037   2.648570  -0.001396   0.001943   6.172375   3.142261   0.953221 -22.451339   0.001429  -0.002228
 -2.384643   0.934740   4.144858  10.709260  21.026645  -1.867037  12.737480   1.482126  -2.228491   7.629781  -0.360083  -0.069960  -4.311266  -2.034810  -0.978258   5.916761  -0.568184   4.342693  13.715464   9.022080  53.941058  -0.000006  16.074919  -0.000148   4.280025   2.978492   4.850234   5.544653   3.572486  -3.702628  10.462046   0.216440 -46.621721  -0.000051 -21.957477  -0.000314   2.705547  -3.333063  -0.152361 -13.775846 -11.933582  -7.903320  32.142756   0.008228   0.012749  -5.707031 -18.069137   3.821522  -9.788922   0.001918   0.007657  -4.383534   1.296779   5.280514   3.008824  -0.001595   0.001779   6.804243   2.955047   0.815193 -23.752413   0.001251  -0.000309
 -2.385677   0.935699   4.147203  10.839375  20.986647  -2.035265  13.026719   1.501808  -2.131670   7.629825  -0.320420   0.071854  -4.313042  -2.098889  -0.955861   5.893216  -0.562535   4.320124  13.547946   8.784758  53.755003   0.000052  15.961123  -0.000165   4.209530   2.975739   4.894536   5.541655   3.467861  -3.802818  10.360796   0.251624 -46.666671  -0.000109 -21.821777  -0.000523   2.595526  -3.255472  -0.127784 -14.609597 -11.633518  -7.990006  32.512078   0.007183   0.010552  -6.139660 -17.936708   3.720871  -9.136137   0.001242   0.007938  -4.766217   1.371735   5.563101   3.628130  -0.002058   0.001881   7.178284   2.774756   0.643206 -24.862144   0.000662   0.000587
 -2.386689   0.936428   4.149514  10.943231  20.889026  -2.165158  13.332493   1.516423  -2.042672   7.631620  -0.286932   0.204368  -4.313438  -2.158018  -0.929120   5.848751  -0.535548   4.291740  13.373131   8.571446  53.562261   0.000076  15.856653  -0.000195   4.137853   2.952883   4.881403   5.516484   3.339026  -3.918985  10.246476   0.263911 -46.720373  -0.000142 -21.700480  -0.000716   2.489503  -3.174258  -0.112900 -15.478324 -11.323803  -8.117510  32.754524   0.006106   0.008541  -6.551552 -17.810059   3.626700  -8.558329   0.000510   0.007614  -5.107749   1.453732   5.824654   4.246869  -0.002455   0.001690   7.460322   2.612218   0.467081 -25.861652   0.000097   0.001433
 -2.387715   0.936961   4.151882  11.017594  20.780984  -2.260787  13.641683   1.511303  -1.957979   7.642108  -0.270557   0.330638  -4.309986  -2.213893  -0.901308   5.796369  -0.499350   4.266071  13.199848   8.379067  53.377929   0.000066  15.762470  -0.000227   4.068111   2.940420   4.846337   5.475066   3.195036  -4.038026  10.123748   0.259247 -46.775097  -0.000146 -21.594531  -0.000858   2.388374  -3.125307  -0.107716 -16.359676 -11.019407  -8.271702  32.934742   0.005131   0.006867  -6.937437 -17.691218   3.539545  -8.029418  -0.000158   0.007092  -5.395687   1.539855   6.064730   4.839404  -0.002748   0.001490   7.682869   2.464766   0.283876 -26.770349  -0.000374   0.001904
 -2.388785   0.937329   4.154361  11.065161  20.680129  -2.328341  13.946331   1.486999  -1.876870   7.659041  -0.272590   0.453761  -4.303755  -2.266658  -0.873820   5.743221  -0.461153   4.248192  13.033277   8.203444  53.207605   0.000032  15.676272  -0.000257   4.000461   2.937421   4.808675   5.421715   3.041768  -4.153942   9.996082   0.242328 -46.827005  -0.000130 -21.501805  -0.000944   2.291891  -3.108880  -0.105476 -17.238050 -10.722412  -8.437618  33.074600   0.004280   0.005514  -7.298191 -17.579813   3.458841  -7.544512  -0.000736   0.006533  -5.632619   1.622268   6.289543   5.403990  -0.002964   0.001331   7.859989   2.323515   0.103502 -27.607744  -0.000682   0.002149
 -2.389914   0.937555   4.156983  11.088651  20.591852  -2.371251  14.241364   1.446871  -1.799537   7.679861  -0.290905   0.574455  -4.295945  -2.316337  -0.847366   5.692913  -0.424531   4.239574  12.875998   8.041693  53.053033  -0.000015  15.596395  -0.000284   3.935214   2.938925   4.777532   5.360049   2.883858  -4.264130   9.866366   0.216800 -46.874632  -0.000100 -21.420224  -0.000978   2.199739  -3.118918  -0.102045 -18.103137 -10.434024  -8.606358  33.184758   0.003548   0.004431  -7.635235 -17.475357   3.384075  -7.100043  -0.001220   0.005991  -5.822799   1.698187   6.502561   5.943580  -0.003128   0.001218   8.002782   2.185205  -0.070371 -28.392771  -0.000836   0.002264
 -2.391113   0.937658   4.159766  11.090566  20.516869  -2.391595  14.523371   1.394517  -1.726092   7.702463  -0.322530   0.692452  -4.287425  -2.363009  -0.822299   5.647065  -0.391180   4.239775  12.729071   7.891779  52.913992  -0.000066  15.521770  -0.000306   3.872554   2.941358   4.756404   5.293042   2.724908  -4.367718   9.736926   0.185451 -46.917734  -0.000065 -21.348008  -0.000973   2.111650  -3.149251  -0.095862 -18.947897 -10.155253  -8.772510  33.271863   0.002923   0.003565  -7.950035 -17.377415   3.314782  -6.692774  -0.001616   0.005478  -5.970442   1.767046   6.705712   6.461766  -0.003257   0.001142   8.120099   2.048848  -0.235925 -29.141434  -0.000861   0.002311
 -2.392371   0.937497   4.162442  11.119966  20.327828  -2.481961  14.841406   1.393204  -1.597448   7.624970  -0.334350   0.821462  -4.262614  -2.378496  -0.813857   5.546972  -0.353868   4.315366  12.491070   7.630655  52.630751  -0.000034  15.325693  -0.000825   3.788241   2.950699   4.801901   5.190380   2.541013  -4.494803   9.622956   0.160666 -46.955773   0.000053 -21.151154  -0.001321   2.027359  -3.195668  -0.147776 -19.745982  -9.847433  -8.831308  32.790360   0.002014   0.002883  -8.257573 -17.243281   3.208511  -6.237563  -0.002502   0.005165  -6.293532   1.859719   6.994359   7.320775  -0.003974   0.000742   7.926160   1.955031  -0.416722 -29.710520  -0.000862   0.002299
